<svg version="1.1" xmlns="http://www.w3.org/2000/svg" xmlns:xlink="http://www.w3.org/1999/xlink" x="0px" y="0px" viewBox="0 0 300 80" style="enable-background:new 0 0 300 80;" xml:space="preserve" class="logo-img wdac-lazy initial loaded uk-svg" width="300" height="80">
<style type="text/css">
	.st0{fill:#53B7E8;}
	.st1{fill:#0E4781;}
	.st2{fill:#FFFFFF;}
	.st3{fill:url(#inner_2_);}
	.st4{fill:url(#middle_2_);}
	.st5{fill:url(#outer_2_);}
</style>
<g id="text">
	<g id="logistics">
		<path id="s" class="st0" d="M280.09,65.643h4.96c0.186,1.36,0.739,2.367,1.645,3.024c0.906,0.657,2.215,0.987,3.93,0.987&#10;&#9;&#9;&#9;c1.459,0,2.561-0.266,3.305-0.794c0.739-0.527,1.107-1.309,1.107-2.341c0-1.504-2.127-2.752-6.384-3.74l-0.149-0.033&#10;&#9;&#9;&#9;c-0.112-0.022-0.285-0.061-0.514-0.119c-2.28-0.505-3.908-1.072-4.88-1.7c-0.864-0.562-1.523-1.317-1.977-2.266&#10;&#9;&#9;&#9;c-0.453-0.949-0.678-2.07-0.678-3.362c0-2.413,0.809-4.264,2.422-5.551c1.617-1.285,3.95-1.929,7.001-1.929&#10;&#9;&#9;&#9;c2.856,0,5.086,0.686,6.699,2.056c1.607,1.371,2.458,3.301,2.547,5.796h-4.828c-0.089-1.202-0.543-2.117-1.36-2.746&#10;&#9;&#9;&#9;c-0.822-0.628-1.987-0.944-3.506-0.944c-1.314,0-2.327,0.261-3.043,0.784c-0.715,0.522-1.07,1.266-1.07,2.232&#10;&#9;&#9;&#9;c0,1.313,1.388,2.297,4.164,2.948c0.752,0.179,1.336,0.32,1.758,0.421c1.78,0.461,3.048,0.821,3.795,1.078&#10;&#9;&#9;&#9;c0.743,0.259,1.392,0.545,1.949,0.859c0.996,0.562,1.739,1.306,2.24,2.233c0.495,0.926,0.747,2.035,0.747,3.327&#10;&#9;&#9;&#9;c0,2.582-0.86,4.584-2.576,6.006c-1.712,1.42-4.127,2.131-7.25,2.131c-3.076,0-5.487-0.725-7.235-2.174&#10;&#9;&#9;&#9;C281.161,70.376,280.221,68.316,280.09,65.643z"/>
		<path id="c" class="st0" d="M276.571,64.784c-0.187,2.82-1.257,5.061-3.21,6.723C271.406,73.17,268.859,74,265.718,74&#10;&#9;&#9;&#9;c-3.618,0-6.426-1.146-8.436-3.438c-2.005-2.29-3.011-5.502-3.011-9.635c0-4.223,1.024-7.459,3.072-9.704&#10;&#9;&#9;&#9;c2.042-2.246,4.987-3.369,8.824-3.369c3.123,0,5.586,0.773,7.395,2.316c1.808,1.544,2.799,3.726,2.976,6.544h-4.958&#10;&#9;&#9;&#9;c-0.21-1.403-0.776-2.472-1.697-3.209c-0.916-0.736-2.154-1.103-3.716-1.103c-2.211,0-3.893,0.724-5.043,2.172&#10;&#9;&#9;&#9;c-1.15,1.449-1.725,3.566-1.725,6.352c0,2.695,0.571,4.778,1.716,6.25c1.145,1.471,2.777,2.207,4.889,2.207&#10;&#9;&#9;&#9;c1.524,0,2.776-0.394,3.748-1.189c0.973-0.79,1.603-1.929,1.893-3.411H276.571z"/>
		<path id="i" class="st0" d="M245.026,73.308V48.492h5.029v24.816H245.026z"/>
		<path id="t" class="st0" d="M229.728,73.308V52.924h-7.25v-4.432h19.48v4.432h-7.202v20.384H229.728z"/>
		<path id="s_1_" class="st0" d="M200.875,65.643h4.964c0.187,1.36,0.734,2.367,1.641,3.024c0.907,0.657,2.215,0.987,3.93,0.987&#10;&#9;&#9;&#9;c1.464,0,2.562-0.266,3.304-0.794c0.739-0.527,1.113-1.309,1.113-2.341c0-1.504-2.131-2.752-6.389-3.74l-0.149-0.033&#10;&#9;&#9;&#9;c-0.112-0.022-0.281-0.061-0.514-0.119c-2.281-0.505-3.907-1.072-4.879-1.7c-0.861-0.562-1.52-1.317-1.973-2.266&#10;&#9;&#9;&#9;c-0.453-0.949-0.682-2.07-0.682-3.362c0-2.413,0.809-4.264,2.422-5.551c1.618-1.285,3.95-1.929,7.007-1.929&#10;&#9;&#9;&#9;c2.85,0,5.085,0.686,6.692,2.056c1.608,1.371,2.459,3.301,2.548,5.796h-4.829c-0.089-1.202-0.542-2.117-1.36-2.746&#10;&#9;&#9;&#9;c-0.818-0.628-1.987-0.944-3.501-0.944c-1.318,0-2.332,0.261-3.047,0.784c-0.711,0.522-1.071,1.266-1.071,2.232&#10;&#9;&#9;&#9;c0,1.313,1.389,2.297,4.164,2.948c0.753,0.179,1.342,0.32,1.763,0.421c1.78,0.461,3.042,0.821,3.79,1.078&#10;&#9;&#9;&#9;c0.748,0.259,1.398,0.545,1.949,0.859c0.995,0.562,1.744,1.306,2.239,2.233c0.5,0.926,0.747,2.035,0.747,3.327&#10;&#9;&#9;&#9;c0,2.582-0.854,4.584-2.57,6.006c-1.716,1.42-4.132,2.131-7.254,2.131c-3.077,0-5.488-0.725-7.232-2.174&#10;&#9;&#9;&#9;C201.95,70.376,201.006,68.316,200.875,65.643z"/>
		<path id="i_1_" class="st0" d="M191.734,73.308V48.492h5.029v24.816H191.734z"/>
		<path id="g" class="st0" d="M182.755,70.376c-0.906,1.248-1.937,2.163-3.093,2.748C178.507,73.708,177.149,74,175.59,74&#10;&#9;&#9;&#9;c-3.418,0-6.188-1.205-8.305-3.615c-2.118-2.407-3.178-5.573-3.178-9.491c0-3.954,1.056-7.116,3.168-9.486&#10;&#9;&#9;&#9;c2.114-2.369,4.93-3.554,8.447-3.554c3.066,0,5.564,0.743,7.502,2.232c1.935,1.489,3.085,3.535,3.45,6.14h-5.128&#10;&#9;&#9;&#9;c-0.309-1.291-0.942-2.273-1.898-2.947c-0.958-0.675-2.206-1.013-3.744-1.013c-2.047,0-3.653,0.764-4.819,2.284&#10;&#9;&#9;&#9;c-1.169,1.522-1.751,3.626-1.751,6.308c0,2.697,0.608,4.809,1.826,6.335c1.215,1.529,2.886,2.293,5.011,2.293&#10;&#9;&#9;&#9;c1.594,0,2.926-0.479,3.998-1.432c1.072-0.956,1.736-2.264,1.991-3.927h-5.541v-4.245h10.119v13.426h-3.365L182.755,70.376z"/>
		<path id="o" class="st0" d="M137.293,60.926c0-4.011,1.075-7.192,3.227-9.544c2.15-2.353,5.053-3.53,8.703-3.53&#10;&#9;&#9;&#9;c3.651,0,6.558,1.18,8.72,3.538c2.162,2.359,3.244,5.537,3.244,9.536c0,3.997-1.082,7.177-3.244,9.534&#10;&#9;&#9;&#9;c-2.162,2.359-5.069,3.539-8.72,3.539c-3.65,0-6.553-1.18-8.703-3.539C138.369,68.103,137.293,64.924,137.293,60.926z&#10;&#9;&#9;&#9; M142.418,60.926c0,2.728,0.599,4.848,1.795,6.359c1.192,1.511,2.865,2.265,5.01,2.265c2.169,0,3.854-0.754,5.06-2.265&#10;&#9;&#9;&#9;c1.207-1.511,1.809-3.631,1.809-6.359c0-2.73-0.602-4.849-1.809-6.362c-1.205-1.509-2.891-2.265-5.06-2.265&#10;&#9;&#9;&#9;c-2.145,0-3.818,0.753-5.01,2.257C143.017,56.063,142.418,58.186,142.418,60.926z"/>
		<path id="l" class="st0" d="M119.852,73.308V48.492h5.029v20.235h11.931v4.581H119.852z"/>
	</g>
	<g id="coldco">
		<path id="o_1_" class="st1" d="M270.16,25.367c0-4.753,1.336-8.501,4.008-11.247c2.671-2.746,6.315-4.12,10.932-4.12&#10;&#9;&#9;&#9;c4.602,0,8.236,1.374,10.902,4.12c2.666,2.746,3.999,6.494,3.999,11.247c0,4.739-1.333,8.485-3.999,11.238&#10;&#9;&#9;&#9;c-2.666,2.753-6.3,4.129-10.902,4.129c-4.617,0-8.261-1.375-10.932-4.129C271.496,33.852,270.16,30.106,270.16,25.367z&#10;&#9;&#9;&#9; M279.462,25.367c0,2.76,0.456,4.785,1.365,6.078c0.911,1.294,2.335,1.941,4.272,1.941c1.924,0,3.337-0.643,4.232-1.93&#10;&#9;&#9;&#9;c0.899-1.287,1.346-3.318,1.346-6.089c0-2.785-0.448-4.822-1.346-6.109c-0.895-1.286-2.308-1.931-4.232-1.931&#10;&#9;&#9;&#9;c-1.937,0-3.361,0.648-4.272,1.942C279.918,20.562,279.462,22.594,279.462,25.367z"/>
		<path id="c_1_" class="st1" d="M258.77,28.614h8.737c-0.26,3.841-1.593,6.821-3.999,8.941c-2.404,2.118-5.661,3.178-9.771,3.178&#10;&#9;&#9;&#9;c-4.601,0-8.224-1.368-10.863-4.109c-2.639-2.739-3.959-6.492-3.959-11.257c0-4.753,1.307-8.501,3.923-11.247&#10;&#9;&#9;&#9;c2.613-2.746,6.175-4.12,10.688-4.12c4.158,0,7.433,1.02,9.818,3.059c2.385,2.04,3.721,4.955,4.007,8.744h-8.836&#10;&#9;&#9;&#9;c-0.13-1.492-0.604-2.618-1.423-3.377c-0.819-0.759-1.969-1.138-3.45-1.138c-1.807,0-3.164,0.67-4.068,2.01&#10;&#9;&#9;&#9;c-0.904,1.34-1.355,3.364-1.355,6.069c0,2.653,0.48,4.66,1.442,6.019c0.962,1.359,2.374,2.039,4.233,2.039&#10;&#9;&#9;&#9;c1.431,0,2.565-0.416,3.405-1.247C258.137,31.347,258.626,30.159,258.77,28.614z"/>
		<path id="d" class="st1" d="M208.823,39.921V10.753h11.157c2.833,0,4.942,0.128,6.328,0.386c1.383,0.257,2.589,0.682,3.618,1.277&#10;&#9;&#9;&#9;c1.987,1.188,3.484,2.858,4.483,5.01c1.002,2.151,1.503,4.799,1.503,7.94c0,3.301-0.62,6.075-1.863,8.326&#10;&#9;&#9;&#9;c-1.241,2.25-3.072,3.924-5.489,5.02c-0.938,0.436-2.109,0.747-3.522,0.931c-1.41,0.184-3.67,0.277-6.777,0.277H208.823z&#10;&#9;&#9;&#9; M218.049,32.535h2.478c2.3,0,3.895-0.522,4.786-1.564c0.891-1.043,1.335-2.91,1.335-5.604c0-2.627-0.453-4.488-1.365-5.585&#10;&#9;&#9;&#9;c-0.909-1.095-2.456-1.642-4.641-1.642h-2.594V32.535z"/>
		<path id="l_1_" class="st1" d="M183.295,39.921V10.753h9.225v21.425h12.54v7.742H183.295z"/>
		<path id="o_2_" class="st1" d="M149.243,25.367c0-4.753,1.337-8.501,4.008-11.247c2.671-2.746,6.315-4.12,10.931-4.12&#10;&#9;&#9;&#9;c4.603,0,8.237,1.374,10.903,4.12c2.663,2.746,3.996,6.494,3.996,11.247c0,4.739-1.333,8.485-3.996,11.238&#10;&#9;&#9;&#9;c-2.666,2.753-6.3,4.129-10.903,4.129c-4.615,0-8.26-1.375-10.931-4.129C150.58,33.852,149.243,30.106,149.243,25.367z&#10;&#9;&#9;&#9; M158.546,25.367c0,2.76,0.454,4.785,1.365,6.078c0.91,1.294,2.335,1.941,4.271,1.941c1.924,0,3.333-0.643,4.232-1.93&#10;&#9;&#9;&#9;c0.896-1.287,1.346-3.318,1.346-6.089c0-2.785-0.45-4.822-1.346-6.109c-0.899-1.286-2.308-1.931-4.232-1.931&#10;&#9;&#9;&#9;c-1.936,0-3.361,0.648-4.271,1.942C159.001,20.562,158.546,22.594,158.546,25.367z"/>
		<path id="c_2_" class="st1" d="M137.855,28.614h8.737c-0.261,3.841-1.593,6.821-3.999,8.941c-2.406,2.118-5.663,3.178-9.771,3.178&#10;&#9;&#9;&#9;c-4.603,0-8.223-1.368-10.862-4.109c-2.64-2.739-3.959-6.492-3.959-11.257c0-4.753,1.307-8.501,3.919-11.247&#10;&#9;&#9;&#9;c2.614-2.746,6.176-4.12,10.688-4.12c4.161,0,7.434,1.02,9.82,3.059c2.386,2.04,3.722,4.955,4.008,8.744H137.6&#10;&#9;&#9;&#9;c-0.13-1.492-0.604-2.618-1.423-3.377c-0.819-0.759-1.97-1.138-3.453-1.138c-1.807,0-3.161,0.67-4.065,2.01&#10;&#9;&#9;&#9;c-0.903,1.34-1.356,3.364-1.356,6.069c0,2.653,0.481,4.66,1.443,6.019c0.962,1.359,2.372,2.039,4.232,2.039&#10;&#9;&#9;&#9;c1.43,0,2.565-0.416,3.403-1.247C137.22,31.347,137.711,30.159,137.855,28.614z"/>
	</g>
</g>
<g id="mountain">
	<g id="solid">
		<polygon id="inner_1_" class="st2" points="80.1,70.815 68.724,50.916 68.535,51.249 64.635,58.091 60.734,51.247 56.79,44.323 &#10;&#9;&#9;&#9;53.191,38.01 34.619,70.817 &#9;&#9;"/>
		<polygon id="middle_1_" class="st2" points="32.402,65.564 32.329,65.564 53.179,28.863 60.689,42.042 64.635,48.966 &#10;&#9;&#9;&#9;68.582,42.042 68.718,41.803 85.273,70.759 96.223,70.759 85.98,52.771 83.433,57.239 68.718,31.413 64.635,38.58 53.179,18.472 &#10;&#9;&#9;&#9;34.097,51.964 30.35,45.392 15.825,70.762 29.459,70.762 &#9;&#9;"/>
		<path id="outer_1_" class="st2" d="M85.98,34.296l-2.547,4.475L68.718,12.941l-3.948,6.924l-0.135,0.24L53.179,0L34.095,33.495&#10;&#9;&#9;&#9;l-3.734-6.559L0,80h112L85.98,34.296z M7.911,75.38l22.45-39.207l3.734,6.556L53.179,9.233l11.456,20.108l4.083-7.164&#10;&#9;&#9;&#9;l14.715,25.826l2.547-4.468l18.133,31.843L7.911,75.38z"/>
	</g>
	<g id="gradient">
		<linearGradient id="inner_2_" gradientUnits="userSpaceOnUse" x1="57.3598" y1="70.8167" x2="57.3598" y2="38.0098">
			<stop offset="0" style="stop-color:#1A4886"/>
			<stop offset="1" style="stop-color:#0076BC"/>
		</linearGradient>
		<polygon id="inner" class="st3 gradient" points="80.1,70.815 68.724,50.916 68.535,51.249 64.635,58.091 60.734,51.247 56.79,44.323 &#10;&#9;&#9;&#9;53.191,38.01 34.619,70.817 &#9;&#9;"/>
		<linearGradient id="middle_2_" gradientUnits="userSpaceOnUse" x1="56.0237" y1="70.7623" x2="56.0237" y2="18.4715">
			<stop offset="0" style="stop-color:#1A4886"/>
			<stop offset="1" style="stop-color:#0076BC"/>
		</linearGradient>
		<polygon id="middle" class="st4 gradient" points="32.402,65.564 32.329,65.564 53.179,28.863 60.689,42.042 64.635,48.966 68.582,42.042 &#10;&#9;&#9;&#9;68.718,41.803 85.273,70.759 96.223,70.759 85.98,52.771 83.433,57.239 68.718,31.413 64.635,38.58 53.179,18.472 34.097,51.964 &#10;&#9;&#9;&#9;30.35,45.392 15.825,70.762 29.459,70.762 &#9;&#9;"/>
		<linearGradient id="outer_2_" gradientUnits="userSpaceOnUse" x1="56" y1="0" x2="56" y2="80">
			<stop offset="0" style="stop-color:#1A4886"/>
			<stop offset="1" style="stop-color:#0076BC"/>
		</linearGradient>
		<path id="outer" class="st5 gradient" d="M85.98,34.296l-2.547,4.475L68.718,12.941l-3.948,6.924l-0.135,0.24L53.179,0L34.095,33.495&#10;&#9;&#9;&#9;l-3.734-6.559L0,80h112L85.98,34.296z M7.911,75.38l22.45-39.207l3.734,6.556L53.179,9.233l11.456,20.108l4.083-7.164&#10;&#9;&#9;&#9;l14.715,25.826l2.547-4.468l18.133,31.843L7.911,75.38z"/>
	</g>
</g>
</svg>